{
  "accessors": [
    {
      "bufferView": 2,
      "componentType": 5126,
      "count": 23530,
      "max": [
        1.023110032081604,
        1.0219500064849854,
        76.71056365966797
      ],
      "min": [
        -1.0219500064849854,
        -1.034690022468567,
        -106.31661224365234
      ],
      "type": "VEC3"
    },
    {
      "bufferView": 2,
      "byteOffset": 282360,
      "componentType": 5126,
      "count": 23530,
      "max": [
        1.0,
        1.0,
        1.0
      ],
      "min": [
        -1.0,
        -1.0,
        -1.0
      ],
      "type": "VEC3"
    },
    {
      "bufferView": 1,
      "componentType": 5126,
      "count": 23530,
      "max": [
        0.5837000012397766,
        0.6718500256538391
      ],
      "min": [
        0.0,
        0.0
      ],
      "type": "VEC2"
    },
    {
      "bufferView": 0,
      "componentType": 5125,
      "count": 62832,
      "type": "SCALAR"
    }
  ],
  "asset": {
    "extras": {
      "author": "daniel132 (https://sketchfab.com/daniel132)",
      "license": "CC-BY-4.0 (http://creativecommons.org/licenses/by/4.0/)",
      "source": "https://sketchfab.com/3d-models/3d-big-ben-141bf783f3c548e0aff19094a9b113c8",
      "title": "3d Big Ben"
    },
    "generator": "Sketchfab-12.67.0",
    "version": "2.0"
  },
  "bufferViews": [
    {
      "buffer": 0,
      "byteLength": 251328,
      "name": "floatBufferViews",
      "target": 34963
    },
    {
      "buffer": 0,
      "byteLength": 188240,
      "byteOffset": 251328,
      "byteStride": 8,
      "name": "floatBufferViews",
      "target": 34962
    },
    {
      "buffer": 0,
      "byteLength": 564720,
      "byteOffset": 439568,
      "byteStride": 12,
      "name": "floatBufferViews",
      "target": 34962
    }
  ],
  "buffers": [
    {
      "byteLength": 1004288,
      "uri": "scene.bin"
    }
  ],
  "extensionsRequired": [
    "KHR_materials_pbrSpecularGlossiness"
  ],
  "extensionsUsed": [
    "KHR_materials_pbrSpecularGlossiness"
  ],
  "materials": [
    {
      "doubleSided": true,
      "extensions": {
        "KHR_materials_pbrSpecularGlossiness": {
          "diffuseFactor": [
            0.800000011920929,
            0.800000011920929,
            0.800000011920929,
            1.0
          ],
          "glossinessFactor": 1.0,
          "specularFactor": [
            1.0,
            1.0,
            1.0
          ]
        }
      },
      "name": "Material.001"
    }
  ],
  "meshes": [
    {
      "name": "Cube",
      "primitives": [
        {
          "attributes": {
            "NORMAL": 1,
            "POSITION": 0,
            "TEXCOORD_0": 2
          },
          "indices": 3,
          "material": 0,
          "mode": 4
        }
      ]
    }
  ],
  "nodes": [
    {
      "children": [
        1
      ],
      "matrix": [
        1.0,
        0.0,
        0.0,
        0.0,
        0.0,
        2.220446049250313e-16,
        -1.0,
        0.0,
        0.0,
        1.0,
        2.220446049250313e-16,
        0.0,
        0.0,
        0.0,
        0.0,
        1.0
      ],
      "name": "Sketchfab_model"
    },
    {
      "children": [
        2,
        4,
        6
      ],
      "name": "Root"
    },
    {
      "children": [
        3
      ],
      "matrix": [
        0.53043,
        0.8459300000000001,
        -0.05519000000000001,
        0.0,
        -0.6565400000000001,
        0.45111,
        0.6045200000000001,
        0.0,
        0.53628,
        -0.28442000000000006,
        0.7946700000000001,
        0.0,
        4.076250000000001,
        -2.3349599999999997,
        6.87651,
        1.0
      ],
      "name": "Lamp"
    },
    {
      "name": "Lamp"
    },
    {
      "children": [
        5
      ],
      "matrix": [
        0.0,
        -0.37439000000000006,
        0.0,
        0.0,
        0.37439000000000006,
        0.0,
        0.0,
        0.0,
        0.0,
        0.0,
        0.028870000000000003,
        0.0,
        0.0,
        0.0,
        3.2124599999999996,
        1.0
      ],
      "name": "Cube"
    },
    {
      "mesh": 0,
      "name": "Cube"
    },
    {
      "children": [
        7
      ],
      "matrix": [
        -0.07830000000000001,
        0.8459300000000001,
        -0.5275099999999999,
        0.0,
        0.6326200000000002,
        0.45111,
        0.6295200000000001,
        0.0,
        0.7705,
        -0.28442000000000006,
        -0.57047,
        0.0,
        2.29975,
        1.65708,
        1.46221,
        1.0
      ],
      "name": "Lamp.001"
    },
    {
      "name": "Lamp.001"
    }
  ],
  "scene": 0,
  "scenes": [
    {
      "name": "Sketchfab_Scene",
      "nodes": [
        0
      ]
    }
  ]
}
